<?xml version='1.0' encoding='utf-8'?>
<svg xmlns="http://www.w3.org/2000/svg" width="128" height="160" viewBox="0 0 128 160" shape-rendering="crispEdges"><ellipse cx="66" cy="140" rx="42" ry="10" fill="#0b1712" opacity=".48" />
      <rect x="27" y="74" width="18" height="43" rx="3" fill="#364238" />
      <rect x="83" y="76" width="18" height="37" rx="3" fill="#364238" />
      <rect x="42" y="84" width="42" height="43" fill="#2d3540" />
      <rect x="38" y="87" width="50" height="12" fill="#376f80" />
      <rect x="47" y="98" width="31" height="11" fill="#d5e3d2" />
      <rect x="42" y="122" width="17" height="19" fill="#252b35" />
      <rect x="67" y="120" width="17" height="21" fill="#252b35" />
      <rect x="35" y="137" width="25" height="7" fill="#0b1712" />
      <rect x="65" y="137" width="27" height="7" fill="#0b1712" />
      <rect x="45" y="48" width="37" height="39" fill="#f0c39a" />
      <rect x="40" y="40" width="47" height="12" fill="#28283b" />
      <rect x="47" y="33" width="32" height="10" fill="#28283b" />
      <rect x="45" y="61" width="9" height="5" fill="#f8e8bd" />
      <rect x="70" y="61" width="8" height="5" fill="#f8e8bd" />
      <rect x="58" y="70" width="17" height="4" fill="#3b2a2b" />
      <rect x="49" y="78" width="29" height="5" fill="#a8d1ba" />
      </svg>